{
  "accessors": [
    {
      "bufferView": 2,
      "componentType": 5126,
      "count": 9017,
      "max": [
        0.9133340120315552,
        0.1833910048007965,
        0.624796986579895
      ],
      "min": [
        -0.9117310047149658,
        -0.18179400265216827,
        -0.5658159852027893
      ],
      "type": "VEC3"
    },
    {
      "bufferView": 2,
      "byteOffset": 108204,
      "componentType": 5126,
      "count": 9017,
      "max": [
        0.9992284774780273,
        0.9999482035636902,
        1.0
      ],
      "min": [
        -0.9985941052436829,
        -0.9998444318771362,
        -0.999843955039978
      ],
      "type": "VEC3"
    },
    {
      "bufferView": 3,
      "componentType": 5126,
      "count": 9017,
      "max": [
        0.9995302557945251,
        0.9999593496322632,
        0.998385488986969,
        1.0
      ],
      "min": [
        -0.9999596476554871,
        -0.999491274356842,
        -0.999801516532898,
        -1.0
      ],
      "type": "VEC4"
    },
    {
      "bufferView": 1,
      "componentType": 5126,
      "count": 9017,
      "max": [
        0.9950000047683716,
        0.9943919777870178
      ],
      "min": [
        0.004999999888241291,
        0.007801999803632498
      ],
      "type": "VEC2"
    },
    {
      "bufferView": 0,
      "componentType": 5125,
      "count": 11595,
      "type": "SCALAR"
    },
    {
      "bufferView": 2,
      "byteOffset": 216408,
      "componentType": 5126,
      "count": 16981,
      "max": [
        0.9133340120315552,
        0.18349699676036835,
        0.624796986579895
      ],
      "min": [
        -0.9117310047149658,
        -0.18179400265216827,
        -0.5658159852027893
      ],
      "type": "VEC3"
    },
    {
      "bufferView": 2,
      "byteOffset": 420180,
      "componentType": 5126,
      "count": 16981,
      "max": [
        0.9997594356536865,
        0.99998539686203,
        0.9984868764877319
      ],
      "min": [
        -0.999485969543457,
        -0.9999119639396667,
        -0.9999200701713562
      ],
      "type": "VEC3"
    },
    {
      "bufferView": 3,
      "byteOffset": 144272,
      "componentType": 5126,
      "count": 16981,
      "max": [
        0.9998350739479065,
        0.999893844127655,
        0.9999449253082275,
        1.0
      ],
      "min": [
        -0.9999154210090637,
        -0.9999938607215881,
        -0.9999885559082031,
        -1.0
      ],
      "type": "VEC4"
    },
    {
      "bufferView": 1,
      "byteOffset": 72136,
      "componentType": 5126,
      "count": 16981,
      "max": [
        0.9950000047683716,
        0.9950000047683716
      ],
      "min": [
        0.004999999888241291,
        0.004999999888241291
      ],
      "type": "VEC2"
    },
    {
      "bufferView": 0,
      "byteOffset": 46380,
      "componentType": 5125,
      "count": 47628,
      "type": "SCALAR"
    }
  ],
  "asset": {
    "extras": {
      "author": "baurawson (https://sketchfab.com/baurawson)",
      "license": "CC-BY-4.0 (http://creativecommons.org/licenses/by/4.0/)",
      "source": "https://sketchfab.com/3d-models/a-fiery-phoenix-with-spread-wings-8746bdd4468e43dda073a951f896e7dc",
      "title": "A fiery phoenix with spread wings"
    },
    "generator": "Sketchfab-17.3.0",
    "version": "2.0"
  },
  "bufferViews": [
    {
      "buffer": 0,
      "byteLength": 236892,
      "name": "floatBufferViews",
      "target": 34963
    },
    {
      "buffer": 0,
      "byteLength": 207984,
      "byteOffset": 236892,
      "byteStride": 8,
      "name": "floatBufferViews",
      "target": 34962
    },
    {
      "buffer": 0,
      "byteLength": 623952,
      "byteOffset": 444876,
      "byteStride": 12,
      "name": "floatBufferViews",
      "target": 34962
    },
    {
      "buffer": 0,
      "byteLength": 415968,
      "byteOffset": 1068828,
      "byteStride": 16,
      "name": "floatBufferViews",
      "target": 34962
    }
  ],
  "buffers": [
    {
      "byteLength": 1484796,
      "uri": "scene.bin"
    }
  ],
  "images": [
    {
      "uri": "textures/material_0_baseColor.png"
    },
    {
      "uri": "textures/material_0_metallicRoughness.png"
    },
    {
      "uri": "textures/material_0_normal.png"
    }
  ],
  "materials": [
    {
      "doubleSided": true,
      "name": "material_0",
      "normalTexture": {
        "index": 2
      },
      "pbrMetallicRoughness": {
        "baseColorTexture": {
          "index": 0
        },
        "metallicRoughnessTexture": {
          "index": 1
        }
      }
    }
  ],
  "meshes": [
    {
      "name": "Object_0",
      "primitives": [
        {
          "attributes": {
            "NORMAL": 1,
            "POSITION": 0,
            "TANGENT": 2,
            "TEXCOORD_0": 3
          },
          "indices": 4,
          "material": 0,
          "mode": 4
        }
      ]
    },
    {
      "name": "Object_1",
      "primitives": [
        {
          "attributes": {
            "NORMAL": 6,
            "POSITION": 5,
            "TANGENT": 7,
            "TEXCOORD_0": 8
          },
          "indices": 9,
          "material": 0,
          "mode": 4
        }
      ]
    }
  ],
  "nodes": [
    {
      "children": [
        1
      ],
      "matrix": [
        1.0,
        0.0,
        0.0,
        0.0,
        0.0,
        2.220446049250313e-16,
        -1.0,
        0.0,
        0.0,
        1.0,
        2.220446049250313e-16,
        0.0,
        0.0,
        0.0,
        0.0,
        1.0
      ],
      "name": "Sketchfab_model"
    },
    {
      "children": [
        2,
        3
      ],
      "name": "base.obj.cleaner.materialmerger.gles"
    },
    {
      "mesh": 0,
      "name": "Object_2"
    },
    {
      "mesh": 1,
      "name": "Object_3"
    }
  ],
  "samplers": [
    {
      "magFilter": 9729,
      "minFilter": 9987,
      "wrapS": 10497,
      "wrapT": 10497
    }
  ],
  "scene": 0,
  "scenes": [
    {
      "name": "Sketchfab_Scene",
      "nodes": [
        0
      ]
    }
  ],
  "textures": [
    {
      "sampler": 0,
      "source": 0
    },
    {
      "sampler": 0,
      "source": 1
    },
    {
      "sampler": 0,
      "source": 2
    }
  ]
}
